<?xml version="1.0" encoding="utf-8"?>
<!-- Generator: Adobe Illustrator 27.0.0, SVG Export Plug-In . SVG Version: 6.00 Build 0)  -->
<svg version="1.1" id="Livello_1" xmlns="http://www.w3.org/2000/svg" xmlns:xlink="http://www.w3.org/1999/xlink" x="0px" y="0px"
	 viewBox="0 0 882.4 287.5" style="enable-background:new 0 0 882.4 287.5;" xml:space="preserve">
<style type="text/css">
	.st0{fill:none;stroke:#8D9FF4;stroke-width:5;stroke-linecap:round;stroke-miterlimit:10;}
	.st1{fill:none;stroke:#8D9FF4;stroke-width:5;stroke-linecap:round;stroke-miterlimit:10;stroke-dasharray:9.964,9.964;}
	.st2{fill:#8C9EF4;}
</style>
<g>
	<g>
		<path class="st0" d="M0,68.9c1.2-1.2,2.4-2.3,3.6-3.5"/>
		<path class="st1" d="M10.8,58.6C27,43.4,43.8,28.7,63,17.6C86.5,4.1,114.5-3.7,141.1,1.8c26.6,5.5,50.9,26.2,55.2,53
			c6.3,39.3-42.1,82.2-70.2,103.8c-15,11.5-34.2,21.8-52.1,15.8c-18-6-27.6-28-22.6-46.3c5-18.3,22-31.7,40.4-35.9
			c18.5-4.2,38-0.1,55.3,7.8s32.5,19.3,47.6,30.7c36.7,27.5,73.3,63.7,117.2,78.8c40,13.7,86.8,8.6,121.6-16
			c19.1-13.5,35.4-35.2,32-58.3c-4.2-28.3-38.1-45-66-38.5c-36,8.4-60.2,47.2-57.4,84.1c4.5,59.9,55.7,93.9,110.5,104.3
			c35.4,6.7,64.5,0.2,96-17.6c31-17.5,48.6-42.4,70.5-69.1c20.6-25,33.7-56.5,64.4-71.7c24-11.9,52-10.8,78.7-12.5
			c23.4-1.5,48.5-6.4,65.5-21.6"/>
		<path class="st0" d="M831.4,88.9c1.1-1.2,2.2-2.5,3.3-3.8"/>
	</g>
</g>
<path class="st2" d="M879.5,43.1c-0.6-0.1-1.3-0.1-1.9-0.1l0,0c-0.6,0.1-3.5,0.5-8,1.1l-15.9,2.2c-11.4,1.6-22.6,3.1-22.6,3.1l0.1,0
	c0,0-0.8,0-1.6,0.3c-0.5,0.2-1,0.4-1.4,0.8c-0.5,0.4-1,1.1-1.1,2c-0.2,1.4,0.5,2.5,1,3.2c0.5,0.6,1.1,1,1.1,1l0,0l8.6,5.7
	c0.1,1.5,0.4,10.2,0.4,12.2c0.1,1.2,0.2,2,0.5,2.6c0.1,0.3,0.3,0.6,0.6,0.9c0.1,0.1,0.3,0.2,0.4,0.3l-0.1,0c0,0,0,0,0.1,0.1
	c0.1,0,0.1,0.1,0.2,0.1c1.4,0.9,2.8,0.2,2.8,0.2l0.1,0l6.9-3.6l7.4,9.7l0.2,0.1c1.7,1.4,3.8,1.4,5.1,0.9c1.3-0.6,2-1.5,2-1.5
	l0.1-0.2l17.1-35.1c0.5-0.9,0.7-1.7,0.7-2.6c0-0.9-0.4-1.8-1-2.4C880.9,43.7,880.3,43.3,879.5,43.1z M878.3,47c0,0.1,0,0.1-0.1,0.3
	l0,0l-17,34.7c0,0-0.1,0.1-0.3,0.2c-0.2,0.1-0.3,0.1-0.9-0.3l-9.1-11.8l-8.6,4.4l3.9-8.9l23.4-12.4c1-0.5,0.7-0.7,0.7-0.7
	c0.3-0.9-1.1-0.6-1.1-0.6l-27.5,8.3l0,0l-10.3-6.8l0,0l0,0c0,0,0,0,0.1,0l0.1,0l0.1,0c0,0,11.2-1.5,22.6-3.1
	c5.7-0.8,11.5-1.6,15.9-2.2c2.6-0.4,5.3-0.7,7.9-1.1C878.2,47,878.2,47,878.3,47z"/>
</svg>
