<svg width="217" height="212" viewBox="0 0 217 212" fill="#FFC979" xmlns="http://www.w3.org/2000/svg">
<path d="M217 105.996C217 113.962 207.678 120.777 205.985 128.238C204.293 135.7 209.633 146.11 206.277 153.053C202.871 160.117 191.508 162.22 186.665 168.282C181.823 174.343 182.25 185.905 176.156 190.773C170.09 195.612 158.948 192.621 151.886 196.032C144.939 199.386 140.36 209.981 132.652 211.737C124.944 213.492 116.482 205.902 108.504 205.902C100.525 205.902 91.8216 213.428 84.3553 211.737C76.889 210.045 72.075 199.386 65.1206 196.032C58.0525 192.628 46.917 195.62 40.8515 190.773C34.7504 185.905 35.2126 174.379 30.3417 168.282C25.4993 162.22 14.1363 160.11 10.7302 153.053C7.37389 146.11 12.7781 135.934 11.0217 128.238C9.26536 120.542 0 113.962 0 105.996C0 98.0295 9.32225 91.2146 11.0146 83.753C12.707 76.2914 7.36678 65.8808 10.7231 58.938C14.1291 51.8744 25.4922 49.7709 30.3346 43.7093C35.1771 37.6477 34.7504 26.0858 40.8444 21.218C46.9099 16.3787 58.0525 19.3704 65.1135 15.9594C72.0679 12.6124 76.6472 2.00983 84.3553 0.261697C92.0634 -1.48644 100.525 6.09593 108.504 6.09593C116.482 6.09593 125.185 -1.4367 132.645 0.261697C140.104 1.96009 144.925 12.6124 151.879 15.9665C158.947 19.3704 170.083 16.3787 176.148 21.2251C182.214 26.0716 181.787 37.6192 186.658 43.7164C191.529 49.8136 202.864 51.8886 206.27 58.9451C209.626 65.8879 204.222 76.064 205.978 83.7601C207.735 91.4562 216.993 98.0295 216.993 106.003L217 105.996Z" />
</svg>
