<svg width="39" height="39" viewBox="0 0 39 39" fill="none" xmlns="http://www.w3.org/2000/svg">
<circle cx="19.4295" cy="19.5577" r="19.1795" fill="url(#paint0_linear_647_50)" stroke="#DCDCDC" stroke-width="0.5"/>
<path d="M27.0976 28.3112L27.885 27.5647L23.5798 23.1369L22.4856 22.6255L22.4141 22.6971L22.8436 23.8322L27.0976 28.3112Z" fill="white"/>
<path d="M27.0588 29.5279L22.0992 24.2921L21.4141 22.4924L22.2935 21.572L24.0831 22.4208L29.1245 27.5952L27.0588 29.5279Z" fill="white"/>
<path d="M16.7397 24.3945C12.5777 24.3945 9.20312 21.0199 9.20312 16.8681C9.20312 12.7163 12.5777 9.33151 16.7397 9.33151C20.9017 9.33151 24.2763 12.7061 24.2763 16.8681C24.2763 21.0301 20.9017 24.4047 16.7397 24.4047V24.3945ZM16.7397 11.0597C13.539 11.0597 10.9313 13.6674 10.9313 16.8681C10.9313 20.0689 13.5287 22.6663 16.7295 22.6663C19.9302 22.6663 22.5277 20.0689 22.5277 16.8681C22.5277 13.6674 19.9302 11.0597 16.7397 11.0597Z" fill="white"/>
<defs>
<linearGradient id="paint0_linear_647_50" x1="29" y1="34.5" x2="11.5" y2="5.5" gradientUnits="userSpaceOnUse">
<stop stop-color="#697FE2"/>
<stop offset="1" stop-color="#D2DFFF"/>
</linearGradient>
</defs>
</svg>
